DavidX-Bold_draw_a.ufo
<glyph name="parenleft" format="1">
  <advance width="408"/>
  <unicode hex="0028"/>
  <outline>
    <contour>
      <point x="293" y="639" type="curve" smooth="yes"/>
      <point x="250" y="562"/>
      <point x="191" y="435"/>
      <point x="191" y="323" type="curve" smooth="yes"/>
      <point x="191" y="188"/>
      <point x="250" y="91"/>
      <point x="309" y="9" type="curve" smooth="yes"/>
      <point x="315" y="1"/>
      <point x="321" y="-9"/>
      <point x="321" y="-16" type="curve" smooth="yes"/>
      <point x="321" y="-21"/>
      <point x="319" y="-29"/>
      <point x="315" y="-41" type="curve" smooth="yes"/>
      <point x="301" y="-83"/>
      <point x="290" y="-102"/>
      <point x="271" y="-140" type="curve" smooth="yes"/>
      <point x="263" y="-156"/>
      <point x="259" y="-161"/>
      <point x="251" y="-161" type="curve" smooth="yes"/>
      <point x="238" y="-161"/>
      <point x="226" y="-146"/>
      <point x="212" y="-128" type="curve" smooth="yes"/>
      <point x="181" y="-89"/>
      <point x="146" y="-39"/>
      <point x="118" y="15" type="curve" smooth="yes"/>
      <point x="80" y="88"/>
      <point x="62" y="190"/>
      <point x="62" y="253" type="curve" smooth="yes"/>
      <point x="62" y="388"/>
      <point x="150" y="555"/>
      <point x="195" y="624" type="curve" smooth="yes"/>
      <point x="201" y="633"/>
      <point x="207" y="641"/>
      <point x="217" y="651" type="curve" smooth="yes"/>
      <point x="234" y="666"/>
      <point x="277" y="692"/>
      <point x="294" y="699" type="curve" smooth="yes"/>
      <point x="297" y="700"/>
      <point x="301" y="702"/>
      <point x="304" y="702" type="curve" smooth="yes"/>
      <point x="311" y="702"/>
      <point x="316" y="698"/>
      <point x="316" y="688" type="curve" smooth="yes"/>
      <point x="316" y="672"/>
      <point x="303" y="657"/>
    </contour>
  </outline>
</glyph>
<glyph name="period" format="1">
  <advance width="363"/>
  <unicode hex="002E"/>
  <outline>
    <contour>
      <point x="119" y="75" type="curve" smooth="yes"/>
      <point x="116" y="79"/>
      <point x="113" y="84"/>
      <point x="113" y="90" type="curve" smooth="yes"/>
      <point x="113" y="95"/>
      <point x="114" y="101"/>
      <point x="120" y="108" type="curve" smooth="yes"/>
      <point x="133" y="124"/>
      <point x="184" y="179"/>
      <point x="197" y="191" type="curve" smooth="yes"/>
      <point x="202" y="196"/>
      <point x="209" y="201"/>
      <point x="216" y="201" type="curve" smooth="yes"/>
      <point x="222" y="201"/>
      <point x="226" y="198"/>
      <point x="232" y="192" type="curve" smooth="yes"/>
      <point x="259" y="163"/>
      <point x="293" y="137"/>
      <point x="324" y="119" type="curve" smooth="yes"/>
      <point x="331" y="115"/>
      <point x="335" y="109"/>
      <point x="335" y="101" type="curve" smooth="yes"/>
      <point x="335" y="95"/>
      <point x="331" y="86"/>
      <point x="328" y="82" type="curve" smooth="yes"/>
      <point x="301" y="44"/>
      <point x="278" y="17"/>
      <point x="253" y="-8" type="curve" smooth="yes"/>
      <point x="249" y="-12"/>
      <point x="243" y="-16"/>
      <point x="237" y="-16" type="curve" smooth="yes"/>
      <point x="231" y="-16"/>
      <point x="226" y="-15"/>
      <point x="221" y="-12" type="curve" smooth="yes"/>
      <point x="180" y="9"/>
      <point x="144" y="41"/>
    </contour>
  </outline>
</glyph>
<glyph name="slash" format="1">
  <advance width="408"/>
  <unicode hex="002F"/>
  <outline>
    <contour>
      <point x="167" y="264" type="curve" smooth="yes"/>
      <point x="232" y="425"/>
      <point x="281" y="577"/>
      <point x="295" y="616" type="curve" smooth="yes"/>
      <point x="299" y="628"/>
      <point x="303" y="635"/>
      <point x="312" y="643" type="curve"/>
      <point x="368" y="681" type="line" smooth="yes"/>
      <point x="374" y="686"/>
      <point x="382" y="691"/>
      <point x="388" y="691" type="curve" smooth="yes"/>
      <point x="392" y="691"/>
      <point x="395" y="687"/>
      <point x="395" y="684" type="curve" smooth="yes"/>
      <point x="395" y="680"/>
      <point x="392" y="669"/>
      <point x="390" y="664" type="curve" smooth="yes"/>
      <point x="361" y="589"/>
      <point x="267" y="366"/>
      <point x="234" y="283" type="curve" smooth="yes"/>
      <point x="191" y="175"/>
      <point x="163" y="97"/>
      <point x="127" y="14" type="curve" smooth="yes"/>
      <point x="116" y="-12"/>
      <point x="104" y="-50"/>
      <point x="96" y="-58" type="curve" smooth="yes"/>
      <point x="81" y="-72"/>
      <point x="47" y="-91"/>
      <point x="35" y="-98" type="curve" smooth="yes"/>
      <point x="30" y="-101"/>
      <point x="27" y="-102"/>
      <point x="24" y="-102" type="curve" smooth="yes"/>
      <point x="17" y="-102"/>
      <point x="13" y="-98"/>
      <point x="13" y="-92" type="curve" smooth="yes"/>
      <point x="13" y="-88"/>
      <point x="15" y="-82"/>
      <point x="17" y="-77" type="curve" smooth="yes"/>
      <point x="45" y="-9"/>
      <point x="111" y="125"/>
    </contour>
  </outline>
</glyph>
<glyph name="one" format="1">
  <advance width="568"/>
  <unicode hex="0031"/>
  <outline>
    <contour>
      <point x="133" y="154" type="curve" smooth="yes"/>
      <point x="139" y="162"/>
      <point x="145" y="166"/>
      <point x="158" y="166" type="curve" smooth="yes"/>
      <point x="211" y="166" type="line"/>
      <point x="225" y="166"/>
      <point x="228" y="178"/>
      <point x="228" y="187" type="curve" smooth="yes"/>
      <point x="228" y="238"/>
      <point x="224" y="361"/>
      <point x="221" y="407" type="curve" smooth="yes"/>
      <point x="219" y="439"/>
      <point x="216" y="493"/>
      <point x="177" y="516" type="curve" smooth="yes"/>
      <point x="158" y="528"/>
      <point x="108" y="536"/>
      <point x="94" y="539" type="curve" smooth="yes"/>
      <point x="83" y="542"/>
      <point x="79" y="547"/>
      <point x="79" y="559" type="curve" smooth="yes"/>
      <point x="79" y="574"/>
      <point x="87" y="588"/>
      <point x="105" y="604" type="curve" smooth="yes"/>
      <point x="140" y="637"/>
      <point x="184" y="671"/>
      <point x="233" y="698" type="curve" smooth="yes"/>
      <point x="265" y="715"/>
      <point x="293" y="723"/>
      <point x="317" y="723" type="curve" smooth="yes"/>
      <point x="344" y="723"/>
      <point x="360" y="706"/>
      <point x="364" y="682" type="curve" smooth="yes"/>
      <point x="377" y="611"/>
      <point x="377" y="539"/>
      <point x="377" y="468" type="curve" smooth="yes"/>
      <point x="377" y="308"/>
      <point x="386" y="233"/>
      <point x="388" y="198" type="curve" smooth="yes"/>
      <point x="390" y="175"/>
      <point x="395" y="166"/>
      <point x="411" y="166" type="curve" smooth="yes"/>
      <point x="490" y="166" type="line"/>
      <point x="500" y="166"/>
      <point x="510" y="159"/>
      <point x="510" y="147" type="curve" smooth="yes"/>
      <point x="510" y="141"/>
      <point x="507" y="129"/>
      <point x="503" y="121" type="curve" smooth="yes"/>
      <point x="487" y="88"/>
      <point x="463" y="34"/>
      <point x="445" y="12" type="curve" smooth="yes"/>
      <point x="437" y="2"/>
      <point x="431" y="0"/>
      <point x="415" y="0" type="curve" smooth="yes"/>
      <point x="100" y="0" type="line"/>
      <point x="83" y="0"/>
      <point x="72" y="7"/>
      <point x="72" y="18" type="curve" smooth="yes"/>
      <point x="72" y="41"/>
      <point x="120" y="136"/>
    </contour>
  </outline>
</glyph>
<glyph name="two" format="1">
  <advance width="568"/>
  <unicode hex="0032"/>
  <outline>
    <contour>
      <point x="140" y="176" type="curve" smooth="yes"/>
      <point x="170" y="231"/>
      <point x="219" y="286"/>
      <point x="240" y="314" type="curve" smooth="yes"/>
      <point x="269" y="351"/>
      <point x="305" y="405"/>
      <point x="305" y="444" type="curve" smooth="yes"/>
      <point x="305" y="510"/>
      <point x="251" y="543"/>
      <point x="215" y="553" type="curve" smooth="yes"/>
      <point x="183" y="562"/>
      <point x="131" y="567"/>
      <point x="113" y="567" type="curve" smooth="yes"/>
      <point x="93" y="567"/>
      <point x="91" y="578"/>
      <point x="91" y="581" type="curve" smooth="yes"/>
      <point x="91" y="586"/>
      <point x="139" y="676"/>
      <point x="161" y="699" type="curve" smooth="yes"/>
      <point x="170" y="709"/>
      <point x="179" y="715"/>
      <point x="192" y="715" type="curve" smooth="yes"/>
      <point x="237" y="715"/>
      <point x="317" y="706"/>
      <point x="348" y="693" type="curve" smooth="yes"/>
      <point x="405" y="668"/>
      <point x="465" y="615"/>
      <point x="465" y="520" type="curve" smooth="yes"/>
      <point x="465" y="454"/>
      <point x="408" y="375"/>
      <point x="348" y="304" type="curve" smooth="yes"/>
      <point x="330" y="283"/>
      <point x="283" y="205"/>
      <point x="283" y="183" type="curve" smooth="yes"/>
      <point x="283" y="169"/>
      <point x="292" y="165"/>
      <point x="306" y="165" type="curve" smooth="yes"/>
      <point x="490" y="165" type="line"/>
      <point x="502" y="165"/>
      <point x="504" y="162"/>
      <point x="504" y="157" type="curve" smooth="yes"/>
      <point x="504" y="126"/>
      <point x="466" y="57"/>
      <point x="437" y="15" type="curve" smooth="yes"/>
      <point x="429" y="4"/>
      <point x="425" y="0"/>
      <point x="412" y="0" type="curve" smooth="yes"/>
      <point x="102" y="0" type="line"/>
      <point x="86" y="0"/>
      <point x="78" y="2"/>
      <point x="78" y="14" type="curve" smooth="yes"/>
      <point x="78" y="54"/>
      <point x="134" y="166"/>
    </contour>
  </outline>
</glyph>
<glyph name="nine" format="1">
  <advance width="567"/>
  <unicode hex="0039"/>
  <outline>
    <contour>
      <point x="145" y="31" type="curve" smooth="yes"/>
      <point x="175" y="87"/>
      <point x="244" y="186"/>
      <point x="276" y="237" type="curve" smooth="yes"/>
      <point x="278" y="240"/>
      <point x="279" y="243"/>
      <point x="279" y="245" type="curve" smooth="yes"/>
      <point x="279" y="248"/>
      <point x="276" y="250"/>
      <point x="272" y="250" type="curve" smooth="yes"/>
      <point x="269" y="250"/>
      <point x="246" y="241"/>
      <point x="225" y="241" type="curve" smooth="yes"/>
      <point x="187" y="241"/>
      <point x="141" y="254"/>
      <point x="96" y="299" type="curve" smooth="yes"/>
      <point x="59" y="337"/>
      <point x="45" y="383"/>
      <point x="45" y="436" type="curve" smooth="yes"/>
      <point x="45" y="505"/>
      <point x="96" y="590"/>
      <point x="116" y="614" type="curve" smooth="yes"/>
      <point x="144" y="648"/>
      <point x="204" y="715"/>
      <point x="301" y="715" type="curve" smooth="yes"/>
      <point x="350" y="715"/>
      <point x="415" y="692"/>
      <point x="466" y="644" type="curve" smooth="yes"/>
      <point x="515" y="596"/>
      <point x="524" y="536"/>
      <point x="524" y="485" type="curve" smooth="yes"/>
      <point x="524" y="440"/>
      <point x="510" y="403"/>
      <point x="495" y="371" type="curve" smooth="yes"/>
      <point x="458" y="293"/>
      <point x="378" y="161"/>
      <point x="328" y="90" type="curve" smooth="yes"/>
      <point x="318" y="76"/>
      <point x="301" y="44"/>
      <point x="278" y="29" type="curve" smooth="yes"/>
      <point x="252" y="12"/>
      <point x="203" y="-13"/>
      <point x="153" y="-24" type="curve" smooth="yes"/>
      <point x="149" y="-25"/>
      <point x="148" y="-25"/>
      <point x="145" y="-25" type="curve" smooth="yes"/>
      <point x="131" y="-25"/>
      <point x="125" y="-17"/>
      <point x="125" y="-10" type="curve" smooth="yes"/>
      <point x="125" y="-1"/>
      <point x="139" y="20"/>
    </contour>
    <contour>
      <point x="340" y="393" type="curve" smooth="yes"/>
      <point x="361" y="407"/>
      <point x="373" y="431"/>
      <point x="373" y="463" type="curve" smooth="yes"/>
      <point x="373" y="485"/>
      <point x="362" y="519"/>
      <point x="339" y="539" type="curve" smooth="yes"/>
      <point x="319" y="557"/>
      <point x="296" y="563"/>
      <point x="266" y="563" type="curve" smooth="yes"/>
      <point x="241" y="563"/>
      <point x="221" y="557"/>
      <point x="207" y="542" type="curve" smooth="yes"/>
      <point x="192" y="525"/>
      <point x="184" y="504"/>
      <point x="184" y="478" type="curve" smooth="yes"/>
      <point x="184" y="412"/>
      <point x="230" y="376"/>
      <point x="280" y="376" type="curve" smooth="yes"/>
      <point x="301" y="376"/>
      <point x="325" y="383"/>
    </contour>
  </outline>
</glyph>
<glyph name="colon" format="1">
  <advance width="388"/>
  <unicode hex="003A"/>
  <outline>
    <contour>
      <point x="109" y="362" type="curve" smooth="yes"/>
      <point x="106" y="366"/>
      <point x="103" y="371"/>
      <point x="103" y="377" type="curve" smooth="yes"/>
      <point x="103" y="382"/>
      <point x="104" y="388"/>
      <point x="110" y="395" type="curve" smooth="yes"/>
      <point x="123" y="410"/>
      <point x="174" y="466"/>
      <point x="187" y="478" type="curve" smooth="yes"/>
      <point x="192" y="483"/>
      <point x="199" y="488"/>
      <point x="206" y="488" type="curve" smooth="yes"/>
      <point x="212" y="488"/>
      <point x="216" y="485"/>
      <point x="222" y="479" type="curve" smooth="yes"/>
      <point x="249" y="450"/>
      <point x="283" y="423"/>
      <point x="314" y="406" type="curve" smooth="yes"/>
      <point x="320" y="402"/>
      <point x="324" y="396"/>
      <point x="324" y="388" type="curve" smooth="yes"/>
      <point x="324" y="382"/>
      <point x="320" y="373"/>
      <point x="317" y="369" type="curve" smooth="yes"/>
      <point x="291" y="331"/>
      <point x="268" y="304"/>
      <point x="242" y="279" type="curve" smooth="yes"/>
      <point x="238" y="275"/>
      <point x="233" y="271"/>
      <point x="227" y="271" type="curve" smooth="yes"/>
      <point x="221" y="271"/>
      <point x="216" y="272"/>
      <point x="211" y="275" type="curve" smooth="yes"/>
      <point x="170" y="296"/>
      <point x="134" y="328"/>
    </contour>
    <contour>
      <point x="109" y="74" type="curve" smooth="yes"/>
      <point x="106" y="78"/>
      <point x="103" y="83"/>
      <point x="103" y="89" type="curve" smooth="yes"/>
      <point x="103" y="94"/>
      <point x="104" y="100"/>
      <point x="110" y="107" type="curve" smooth="yes"/>
      <point x="123" y="123"/>
      <point x="174" y="179"/>
      <point x="187" y="191" type="curve" smooth="yes"/>
      <point x="192" y="196"/>
      <point x="199" y="201"/>
      <point x="206" y="201" type="curve" smooth="yes"/>
      <point x="212" y="201"/>
      <point x="216" y="198"/>
      <point x="222" y="192" type="curve" smooth="yes"/>
      <point x="249" y="163"/>
      <point x="283" y="136"/>
      <point x="314" y="118" type="curve" smooth="yes"/>
      <point x="320" y="114"/>
      <point x="324" y="108"/>
      <point x="324" y="100" type="curve" smooth="yes"/>
      <point x="324" y="94"/>
      <point x="320" y="85"/>
      <point x="317" y="81" type="curve" smooth="yes"/>
      <point x="291" y="43"/>
      <point x="268" y="16"/>
      <point x="242" y="-8" type="curve" smooth="yes"/>
      <point x="238" y="-12"/>
      <point x="233" y="-16"/>
      <point x="227" y="-16" type="curve" smooth="yes"/>
      <point x="221" y="-16"/>
      <point x="216" y="-15"/>
      <point x="211" y="-12" type="curve" smooth="yes"/>
      <point x="170" y="9"/>
      <point x="134" y="40"/>
    </contour>
  </outline>
</glyph>
<glyph name="currency" format="1">
  <advance width="640"/>
  <unicode hex="00A4"/>
  <outline>
    <contour>
      <point x="542" y="436" type="curve" smooth="yes"/>
      <point x="535" y="445"/>
      <point x="529" y="456"/>
      <point x="537" y="465" type="curve" smooth="yes"/>
      <point x="581" y="510"/>
      <point x="608" y="536"/>
      <point x="608" y="536" type="curve"/>
      <point x="612" y="541"/>
      <point x="614" y="545"/>
      <point x="614" y="549" type="curve" smooth="yes"/>
      <point x="614" y="554"/>
      <point x="612" y="558"/>
      <point x="609" y="563" type="curve" smooth="yes"/>
      <point x="561" y="612" type="line" smooth="yes"/>
      <point x="555" y="619"/>
      <point x="551" y="621"/>
      <point x="549" y="621" type="curve" smooth="yes"/>
      <point x="543" y="621"/>
      <point x="539" y="619"/>
      <point x="537" y="613" type="curve"/>
      <point x="537" y="613"/>
      <point x="516" y="592"/>
      <point x="470" y="538" type="curve" smooth="yes"/>
      <point x="461" y="528"/>
      <point x="453" y="536"/>
      <point x="441" y="541" type="curve" smooth="yes"/>
      <point x="411" y="556"/>
      <point x="377" y="567"/>
      <point x="325" y="567" type="curve" smooth="yes"/>
      <point x="283" y="567"/>
      <point x="240" y="552"/>
      <point x="209" y="533" type="curve" smooth="yes"/>
      <point x="199" y="526"/>
      <point x="193" y="523"/>
      <point x="185" y="533" type="curve" smooth="yes"/>
      <point x="136" y="585"/>
      <point x="120" y="607"/>
      <point x="120" y="607" type="curve"/>
      <point x="117" y="611"/>
      <point x="111" y="613"/>
      <point x="109" y="613" type="curve" smooth="yes"/>
      <point x="104" y="613"/>
      <point x="99" y="611"/>
      <point x="95" y="607" type="curve" smooth="yes"/>
      <point x="49" y="557" type="line"/>
      <point x="45" y="551"/>
      <point x="43" y="547"/>
      <point x="43" y="543" type="curve" smooth="yes"/>
      <point x="43" y="539"/>
      <point x="45" y="535"/>
      <point x="47" y="530" type="curve"/>
      <point x="47" y="530"/>
      <point x="64" y="514"/>
      <point x="118" y="460" type="curve" smooth="yes"/>
      <point x="126" y="453"/>
      <point x="125" y="444"/>
      <point x="118" y="435" type="curve"/>
      <point x="93" y="396"/>
      <point x="84" y="360"/>
      <point x="84" y="315" type="curve" smooth="yes"/>
      <point x="84" y="259"/>
      <point x="94" y="224"/>
      <point x="110" y="190" type="curve" smooth="yes"/>
      <point x="115" y="180"/>
      <point x="119" y="172"/>
      <point x="110" y="164" type="curve" smooth="yes"/>
      <point x="52" y="104"/>
      <point x="30" y="85"/>
      <point x="30" y="85" type="curve"/>
      <point x="26" y="81"/>
      <point x="24" y="76"/>
      <point x="24" y="73" type="curve" smooth="yes"/>
      <point x="24" y="68"/>
      <point x="26" y="66"/>
      <point x="30" y="59" type="curve"/>
      <point x="78" y="10" type="line" smooth="yes"/>
      <point x="80" y="6"/>
      <point x="84" y="4"/>
      <point x="90" y="4" type="curve" smooth="yes"/>
      <point x="93" y="4"/>
      <point x="97" y="6"/>
      <point x="103" y="12" type="curve"/>
      <point x="103" y="12"/>
      <point x="124" y="31"/>
      <point x="178" y="92" type="curve" smooth="yes"/>
      <point x="186" y="101"/>
      <point x="193" y="98"/>
      <point x="203" y="92" type="curve" smooth="yes"/>
      <point x="236" y="74"/>
      <point x="272" y="67"/>
      <point x="316" y="67" type="curve" smooth="yes"/>
      <point x="362" y="67"/>
      <point x="404" y="77"/>
      <point x="437" y="100" type="curve" smooth="yes"/>
      <point x="445" y="106"/>
      <point x="453" y="110"/>
      <point x="463" y="100" type="curve" smooth="yes"/>
      <point x="513" y="46"/>
      <point x="533" y="25"/>
      <point x="533" y="25" type="curve"/>
      <point x="537" y="18"/>
      <point x="542" y="17"/>
      <point x="546" y="17" type="curve" smooth="yes"/>
      <point x="550" y="17"/>
      <point x="555" y="20"/>
      <point x="559" y="25" type="curve"/>
      <point x="607" y="72" type="line" smooth="yes"/>
      <point x="612" y="76"/>
      <point x="613" y="82"/>
      <point x="613" y="86" type="curve" smooth="yes"/>
      <point x="613" y="90"/>
      <point x="611" y="94"/>
      <point x="607" y="99" type="curve"/>
      <point x="607" y="99"/>
      <point x="590" y="115"/>
      <point x="535" y="169" type="curve" smooth="yes"/>
      <point x="527" y="177"/>
      <point x="529" y="185"/>
      <point x="535" y="196" type="curve" smooth="yes"/>
      <point x="543" y="209"/>
      <point x="548" y="218"/>
      <point x="554" y="232" type="curve" smooth="yes"/>
      <point x="565" y="257"/>
      <point x="569" y="286"/>
      <point x="569" y="316" type="curve" smooth="yes"/>
      <point x="569" y="360"/>
      <point x="563" y="403"/>
    </contour>
    <contour>
      <point x="354" y="178" type="curve" smooth="yes"/>
      <point x="251" y="178"/>
      <point x="190" y="217"/>
      <point x="190" y="323" type="curve" smooth="yes"/>
      <point x="190" y="362"/>
      <point x="192" y="375"/>
      <point x="197" y="392" type="curve" smooth="yes"/>
      <point x="207" y="425"/>
      <point x="235" y="454"/>
      <point x="295" y="454" type="curve" smooth="yes"/>
      <point x="430" y="454"/>
      <point x="464" y="372"/>
      <point x="464" y="290" type="curve" smooth="yes"/>
      <point x="464" y="184"/>
      <point x="400" y="178"/>
    </contour>
  </outline>
</glyph>
<glyph name="section" format="1">
  <advance width="438"/>
  <unicode hex="00A7"/>
  <outline>
    <contour>
      <point x="64" y="32" type="curve" smooth="yes"/>
      <point x="89" y="14"/>
      <point x="136" y="-4"/>
      <point x="193" y="-1" type="curve" smooth="yes"/>
      <point x="261" y="3"/>
      <point x="345" y="95"/>
      <point x="345" y="149" type="curve" smooth="yes"/>
      <point x="345" y="188"/>
      <point x="308" y="208"/>
      <point x="308" y="217" type="curve" smooth="yes"/>
      <point x="308" y="222"/>
      <point x="327" y="237"/>
      <point x="343" y="255" type="curve" smooth="yes"/>
      <point x="366" y="282"/>
      <point x="380" y="319"/>
      <point x="380" y="350" type="curve" smooth="yes"/>
      <point x="380" y="420"/>
      <point x="353" y="451"/>
      <point x="232" y="517" type="curve" smooth="yes"/>
      <point x="156" y="558"/>
      <point x="147" y="574"/>
      <point x="147" y="596" type="curve" smooth="yes"/>
      <point x="147" y="609"/>
      <point x="163" y="620"/>
      <point x="175" y="620" type="curve" smooth="yes"/>
      <point x="213" y="620"/>
      <point x="245" y="591"/>
      <point x="275" y="564" type="curve" smooth="yes"/>
      <point x="288" y="552"/>
      <point x="292" y="553"/>
      <point x="300" y="553" type="curve" smooth="yes"/>
      <point x="307" y="553"/>
      <point x="341" y="599"/>
      <point x="350" y="615" type="curve" smooth="yes"/>
      <point x="359" y="633"/>
      <point x="352" y="651"/>
      <point x="329" y="663" type="curve" smooth="yes"/>
      <point x="301" y="677"/>
      <point x="277" y="692"/>
      <point x="210" y="692" type="curve" smooth="yes"/>
      <point x="127" y="692"/>
      <point x="65" y="622"/>
      <point x="65" y="552" type="curve" smooth="yes"/>
      <point x="65" y="499"/>
      <point x="102" y="487"/>
      <point x="102" y="476" type="curve" smooth="yes"/>
      <point x="102" y="472"/>
      <point x="86" y="459"/>
      <point x="74" y="445" type="curve" smooth="yes"/>
      <point x="59" y="426"/>
      <point x="41" y="387"/>
      <point x="41" y="356" type="curve" smooth="yes"/>
      <point x="41" y="285"/>
      <point x="68" y="255"/>
      <point x="181" y="186" type="curve" smooth="yes"/>
      <point x="248" y="145"/>
      <point x="261" y="133"/>
      <point x="261" y="110" type="curve" smooth="yes"/>
      <point x="261" y="102"/>
      <point x="250" y="84"/>
      <point x="235" y="84" type="curve" smooth="yes"/>
      <point x="196" y="84"/>
      <point x="153" y="111"/>
      <point x="128" y="131" type="curve" smooth="yes"/>
      <point x="116" y="141"/>
      <point x="113" y="140"/>
      <point x="104" y="140" type="curve" smooth="yes"/>
      <point x="97" y="140"/>
      <point x="60" y="89"/>
      <point x="51" y="71" type="curve" smooth="yes"/>
      <point x="43" y="54"/>
      <point x="44" y="48"/>
    </contour>
    <contour>
      <point x="144" y="441" type="curve" smooth="yes"/>
      <point x="154" y="441"/>
      <point x="166" y="430"/>
      <point x="183" y="419" type="curve" smooth="yes"/>
      <point x="235" y="386"/>
      <point x="295" y="358"/>
      <point x="295" y="303" type="curve" smooth="yes"/>
      <point x="295" y="276"/>
      <point x="287" y="264"/>
      <point x="278" y="264" type="curve" smooth="yes"/>
      <point x="270" y="264"/>
      <point x="260" y="273"/>
      <point x="245" y="283" type="curve" smooth="yes"/>
      <point x="205" y="309"/>
      <point x="128" y="349"/>
      <point x="128" y="400" type="curve" smooth="yes"/>
      <point x="128" y="430"/>
      <point x="136" y="441"/>
    </contour>
  </outline>
</glyph>
<glyph name="uni0308" format="1">
  <advance width="0"/>
  <unicode hex="0308"/>
  <outline>
    <contour>
      <point x="-394" y="709" type="curve" smooth="yes"/>
      <point x="-376" y="684"/>
      <point x="-342" y="655"/>
      <point x="-317" y="640" type="curve" smooth="yes"/>
      <point x="-315" y="638"/>
      <point x="-311" y="637"/>
      <point x="-306" y="637" type="curve" smooth="yes"/>
      <point x="-302" y="637"/>
      <point x="-299" y="640"/>
      <point x="-296" y="642" type="curve" smooth="yes"/>
      <point x="-279" y="660"/>
      <point x="-251" y="689"/>
      <point x="-235" y="712" type="curve" smooth="yes"/>
      <point x="-232" y="717"/>
      <point x="-230" y="722"/>
      <point x="-230" y="727" type="curve" smooth="yes"/>
      <point x="-230" y="734"/>
      <point x="-233" y="739"/>
      <point x="-238" y="742" type="curve" smooth="yes"/>
      <point x="-257" y="755"/>
      <point x="-291" y="785"/>
      <point x="-310" y="801" type="curve" smooth="yes"/>
      <point x="-315" y="805"/>
      <point x="-317" y="808"/>
      <point x="-322" y="808" type="curve" smooth="yes"/>
      <point x="-326" y="808"/>
      <point x="-331" y="805"/>
      <point x="-335" y="800" type="curve" smooth="yes"/>
      <point x="-346" y="787"/>
      <point x="-380" y="750"/>
      <point x="-395" y="734" type="curve" smooth="yes"/>
      <point x="-399" y="730"/>
      <point x="-400" y="725"/>
      <point x="-400" y="721" type="curve" smooth="yes"/>
      <point x="-400" y="717"/>
      <point x="-397" y="712"/>
    </contour>
    <contour>
      <point x="-185" y="711" type="curve" smooth="yes"/>
      <point x="-166" y="687"/>
      <point x="-134" y="659"/>
      <point x="-107" y="644" type="curve" smooth="yes"/>
      <point x="-105" y="641"/>
      <point x="-101" y="640"/>
      <point x="-97" y="640" type="curve" smooth="yes"/>
      <point x="-94" y="640"/>
      <point x="-90" y="642"/>
      <point x="-86" y="645" type="curve" smooth="yes"/>
      <point x="-69" y="664"/>
      <point x="-41" y="691"/>
      <point x="-26" y="715" type="curve" smooth="yes"/>
      <point x="-24" y="720"/>
      <point x="-20" y="726"/>
      <point x="-20" y="731" type="curve" smooth="yes"/>
      <point x="-20" y="736"/>
      <point x="-24" y="741"/>
      <point x="-29" y="745" type="curve" smooth="yes"/>
      <point x="-47" y="757"/>
      <point x="-81" y="787"/>
      <point x="-100" y="804" type="curve" smooth="yes"/>
      <point x="-105" y="808"/>
      <point x="-107" y="810"/>
      <point x="-112" y="810" type="curve" smooth="yes"/>
      <point x="-117" y="810"/>
      <point x="-123" y="808"/>
      <point x="-126" y="803" type="curve" smooth="yes"/>
      <point x="-136" y="790"/>
      <point x="-170" y="752"/>
      <point x="-186" y="736" type="curve" smooth="yes"/>
      <point x="-190" y="732"/>
      <point x="-190" y="727"/>
      <point x="-190" y="724" type="curve" smooth="yes"/>
      <point x="-190" y="720"/>
      <point x="-188" y="715"/>
    </contour>
  </outline>
</glyph>
<glyph name="uni0595" format="1">
  <advance width="0"/>
  <unicode hex="0595"/>
  <outline>
    <contour>
      <point x="105" y="862" type="curve" smooth="yes"/>
      <point x="105" y="870"/>
      <point x="107" y="879"/>
      <point x="119" y="879" type="curve" smooth="yes"/>
      <point x="154" y="879" type="line" smooth="yes"/>
      <point x="165" y="879"/>
      <point x="169" y="871"/>
      <point x="169" y="863" type="curve" smooth="yes"/>
      <point x="169" y="782"/>
      <point x="164" y="705"/>
      <point x="163" y="699" type="curve" smooth="yes"/>
      <point x="161" y="687"/>
      <point x="158" y="684"/>
      <point x="149" y="684" type="curve" smooth="yes"/>
      <point x="125" y="684" type="line" smooth="yes"/>
      <point x="116" y="684"/>
      <point x="113" y="687"/>
      <point x="111" y="699" type="curve" smooth="yes"/>
      <point x="109" y="714"/>
      <point x="105" y="781"/>
    </contour>
    <contour>
      <point x="308" y="842" type="curve" smooth="yes"/>
      <point x="308" y="819"/>
      <point x="290" y="801"/>
      <point x="267" y="801" type="curve" smooth="yes"/>
      <point x="245" y="801"/>
      <point x="227" y="819"/>
      <point x="227" y="842" type="curve" smooth="yes"/>
      <point x="227" y="864"/>
      <point x="245" y="882"/>
      <point x="267" y="882" type="curve" smooth="yes"/>
      <point x="290" y="882"/>
      <point x="308" y="864"/>
    </contour>
    <contour>
      <point x="308" y="718" type="curve" smooth="yes"/>
      <point x="308" y="695"/>
      <point x="290" y="677"/>
      <point x="267" y="677" type="curve" smooth="yes"/>
      <point x="245" y="677"/>
      <point x="227" y="695"/>
      <point x="227" y="718" type="curve" smooth="yes"/>
      <point x="227" y="740"/>
      <point x="245" y="758"/>
      <point x="267" y="758" type="curve" smooth="yes"/>
      <point x="290" y="758"/>
      <point x="308" y="740"/>
    </contour>
  </outline>
</glyph>
<glyph name="uni0598" format="1">
  <advance width="0"/>
  <unicode hex="0598"/>
  <outline>
    <contour>
      <point x="176" y="787" type="curve" smooth="yes"/>
      <point x="190" y="770"/>
      <point x="196" y="761"/>
      <point x="214" y="741" type="curve" smooth="yes"/>
      <point x="228" y="726"/>
      <point x="249" y="713"/>
      <point x="273" y="713" type="curve" smooth="yes"/>
      <point x="321" y="713"/>
      <point x="354" y="753"/>
      <point x="354" y="795" type="curve" smooth="yes"/>
      <point x="354" y="819"/>
      <point x="346" y="846"/>
      <point x="312" y="866" type="curve" smooth="yes"/>
      <point x="307" y="869"/>
      <point x="301" y="872"/>
      <point x="296" y="872" type="curve" smooth="yes"/>
      <point x="291" y="872"/>
      <point x="290" y="870"/>
      <point x="288" y="868" type="curve" smooth="yes"/>
      <point x="272" y="848" type="line"/>
      <point x="270" y="844"/>
      <point x="269" y="842"/>
      <point x="269" y="838" type="curve" smooth="yes"/>
      <point x="269" y="835"/>
      <point x="272" y="831"/>
      <point x="275" y="829" type="curve" smooth="yes"/>
      <point x="295" y="819"/>
      <point x="302" y="808"/>
      <point x="302" y="791" type="curve" smooth="yes"/>
      <point x="302" y="775"/>
      <point x="290" y="764"/>
      <point x="275" y="764" type="curve" smooth="yes"/>
      <point x="257" y="764"/>
      <point x="247" y="776"/>
      <point x="237" y="788" type="curve" smooth="yes"/>
      <point x="219" y="810"/>
      <point x="215" y="816"/>
      <point x="197" y="837" type="curve" smooth="yes"/>
      <point x="182" y="854"/>
      <point x="160" y="867"/>
      <point x="138" y="867" type="curve" smooth="yes"/>
      <point x="90" y="867"/>
      <point x="57" y="827"/>
      <point x="57" y="785" type="curve" smooth="yes"/>
      <point x="57" y="761"/>
      <point x="65" y="734"/>
      <point x="99" y="714" type="curve" smooth="yes"/>
      <point x="104" y="711"/>
      <point x="110" y="708"/>
      <point x="115" y="708" type="curve" smooth="yes"/>
      <point x="120" y="708"/>
      <point x="121" y="710"/>
      <point x="123" y="712" type="curve" smooth="yes"/>
      <point x="139" y="732" type="line" smooth="yes"/>
      <point x="141" y="736"/>
      <point x="142" y="738"/>
      <point x="142" y="742" type="curve" smooth="yes"/>
      <point x="142" y="745"/>
      <point x="139" y="749"/>
      <point x="136" y="751" type="curve"/>
      <point x="116" y="761"/>
      <point x="109" y="772"/>
      <point x="109" y="789" type="curve" smooth="yes"/>
      <point x="109" y="805"/>
      <point x="121" y="816"/>
      <point x="136" y="816" type="curve" smooth="yes"/>
      <point x="153" y="816"/>
      <point x="160" y="807"/>
    </contour>
  </outline>
</glyph>
<glyph name="uni05A9" format="1">
  <advance width="0"/>
  <unicode hex="05A9"/>
  <outline>
    <contour>
      <point x="69" y="804" type="curve" smooth="yes"/>
      <point x="69" y="744"/>
      <point x="116" y="697"/>
      <point x="176" y="697" type="curve" smooth="yes"/>
      <point x="188" y="697"/>
      <point x="200" y="699"/>
      <point x="211" y="702" type="curve"/>
      <point x="227" y="683"/>
      <point x="246" y="660"/>
      <point x="252" y="654" type="curve" smooth="yes"/>
      <point x="257" y="649"/>
      <point x="261" y="647"/>
      <point x="264" y="647" type="curve" smooth="yes"/>
      <point x="267" y="647"/>
      <point x="269" y="648"/>
      <point x="272" y="650" type="curve" smooth="yes"/>
      <point x="290" y="662" type="line" smooth="yes"/>
      <point x="294" y="665"/>
      <point x="297" y="668"/>
      <point x="297" y="672" type="curve" smooth="yes"/>
      <point x="297" y="675"/>
      <point x="295" y="679"/>
      <point x="293" y="683" type="curve" smooth="yes"/>
      <point x="292" y="686"/>
      <point x="275" y="714"/>
      <point x="261" y="737" type="curve"/>
      <point x="276" y="755"/>
      <point x="284" y="778"/>
      <point x="284" y="804" type="curve" smooth="yes"/>
      <point x="284" y="864"/>
      <point x="236" y="912"/>
      <point x="176" y="912" type="curve" smooth="yes"/>
      <point x="116" y="912"/>
      <point x="69" y="864"/>
    </contour>
    <contour>
      <point x="118" y="804" type="curve" smooth="yes"/>
      <point x="118" y="836"/>
      <point x="144" y="862"/>
      <point x="175" y="862" type="curve" smooth="yes"/>
      <point x="207" y="862"/>
      <point x="233" y="836"/>
      <point x="233" y="804" type="curve" smooth="yes"/>
      <point x="233" y="773"/>
      <point x="207" y="747"/>
      <point x="175" y="747" type="curve" smooth="yes"/>
      <point x="144" y="747"/>
      <point x="118" y="773"/>
    </contour>
  </outline>
</glyph>
<glyph name="uni05AA" format="1">
  <advance width="0"/>
  <unicode hex="05AA"/>
  <outline>
    <contour>
      <point x="151" y="-165" type="curve" smooth="yes"/>
      <point x="100" y="-165"/>
      <point x="95" y="-124"/>
      <point x="95" y="-88" type="curve" smooth="yes"/>
      <point x="95" y="-76"/>
      <point x="90" y="-73"/>
      <point x="81" y="-73" type="curve" smooth="yes"/>
      <point x="55" y="-73" type="line" smooth="yes"/>
      <point x="46" y="-73"/>
      <point x="39" y="-76"/>
      <point x="39" y="-86" type="curve" smooth="yes"/>
      <point x="40" y="-137"/>
      <point x="48" y="-193"/>
      <point x="119" y="-213" type="curve"/>
      <point x="126" y="-282" type="line" smooth="yes"/>
      <point x="127" y="-294"/>
      <point x="131" y="-297"/>
      <point x="140" y="-297" type="curve" smooth="yes"/>
      <point x="162" y="-297" type="line" smooth="yes"/>
      <point x="171" y="-297"/>
      <point x="175" y="-294"/>
      <point x="176" y="-282" type="curve" smooth="yes"/>
      <point x="183" y="-213" type="line"/>
      <point x="254" y="-193"/>
      <point x="262" y="-137"/>
      <point x="263" y="-86" type="curve" smooth="yes"/>
      <point x="263" y="-76"/>
      <point x="256" y="-73"/>
      <point x="247" y="-73" type="curve" smooth="yes"/>
      <point x="221" y="-73" type="line" smooth="yes"/>
      <point x="212" y="-73"/>
      <point x="207" y="-76"/>
      <point x="207" y="-88" type="curve" smooth="yes"/>
      <point x="207" y="-124"/>
      <point x="202" y="-165"/>
    </contour>
  </outline>
</glyph>
<glyph name="hatafqamatshebrew" format="1">
  <advance width="0"/>
  <unicode hex="05B3"/>
  <outline>
    <contour>
      <point x="96" y="-140" type="curve" smooth="yes"/>
      <point x="68" y="-138"/>
      <point x="53" y="-136"/>
      <point x="41" y="-134" type="curve" smooth="yes"/>
      <point x="31" y="-132"/>
      <point x="25" y="-131"/>
      <point x="25" y="-120" type="curve" smooth="yes"/>
      <point x="25" y="-94" type="line" smooth="yes"/>
      <point x="25" y="-86"/>
      <point x="29" y="-77"/>
      <point x="41" y="-77" type="curve" smooth="yes"/>
      <point x="56" y="-76"/>
      <point x="139" y="-73"/>
      <point x="139" y="-73" type="curve" smooth="yes"/>
      <point x="178" y="-73"/>
      <point x="225" y="-77"/>
      <point x="238" y="-77" type="curve" smooth="yes"/>
      <point x="249" y="-77"/>
      <point x="253" y="-86"/>
      <point x="253" y="-94" type="curve" smooth="yes"/>
      <point x="253" y="-120" type="line" smooth="yes"/>
      <point x="253" y="-128"/>
      <point x="248" y="-132"/>
      <point x="238" y="-134" type="curve" smooth="yes"/>
      <point x="227" y="-136"/>
      <point x="208" y="-138"/>
      <point x="183" y="-140" type="curve" smooth="yes"/>
      <point x="177" y="-140"/>
      <point x="175" y="-143"/>
      <point x="174" y="-152" type="curve" smooth="yes"/>
      <point x="172" y="-167"/>
      <point x="166" y="-246"/>
      <point x="165" y="-252" type="curve" smooth="yes"/>
      <point x="163" y="-264"/>
      <point x="159" y="-267"/>
      <point x="150" y="-267" type="curve" smooth="yes"/>
      <point x="129" y="-267" type="line" smooth="yes"/>
      <point x="120" y="-267"/>
      <point x="117" y="-264"/>
      <point x="115" y="-252" type="curve" smooth="yes"/>
      <point x="113" y="-237"/>
      <point x="108" y="-168"/>
      <point x="106" y="-152" type="curve" smooth="yes"/>
      <point x="105" y="-141"/>
      <point x="100" y="-140"/>
    </contour>
    <contour>
      <point x="341" y="-65" type="curve" smooth="yes"/>
      <point x="318" y="-65"/>
      <point x="299" y="-83"/>
      <point x="299" y="-106" type="curve" smooth="yes"/>
      <point x="299" y="-129"/>
      <point x="318" y="-147"/>
      <point x="341" y="-147" type="curve" smooth="yes"/>
      <point x="363" y="-147"/>
      <point x="381" y="-129"/>
      <point x="381" y="-106" type="curve" smooth="yes"/>
      <point x="381" y="-83"/>
      <point x="363" y="-65"/>
    </contour>
    <contour>
      <point x="343" y="-189" type="curve" smooth="yes"/>
      <point x="320" y="-189"/>
      <point x="301" y="-207"/>
      <point x="301" y="-230" type="curve" smooth="yes"/>
      <point x="301" y="-253"/>
      <point x="320" y="-271"/>
      <point x="343" y="-271" type="curve" smooth="yes"/>
      <point x="365" y="-271"/>
      <point x="383" y="-253"/>
      <point x="383" y="-230" type="curve" smooth="yes"/>
      <point x="383" y="-207"/>
      <point x="365" y="-189"/>
    </contour>
  </outline>
</glyph>
<glyph name="dageshhebrew" format="1">
  <advance width="408"/>
  <unicode hex="05BC"/>
  <outline>
    <contour>
      <point x="256" y="278" type="curve" smooth="yes"/>
      <point x="256" y="256"/>
      <point x="238" y="238"/>
      <point x="216" y="238" type="curve" smooth="yes"/>
      <point x="193" y="238"/>
      <point x="175" y="256"/>
      <point x="175" y="278" type="curve" smooth="yes"/>
      <point x="175" y="301"/>
      <point x="193" y="319"/>
      <point x="216" y="319" type="curve" smooth="yes"/>
      <point x="238" y="319"/>
      <point x="256" y="301"/>
    </contour>
  </outline>
</glyph>
<glyph name="rafehebrew" format="1">
  <advance width="408"/>
  <unicode hex="05BF"/>
  <outline>
    <contour>
      <point x="205" y="642" type="curve" smooth="yes"/>
      <point x="173" y="642"/>
      <point x="128" y="643"/>
      <point x="106" y="646" type="curve" smooth="yes"/>
      <point x="96" y="648"/>
      <point x="91" y="653"/>
      <point x="91" y="663" type="curve" smooth="yes"/>
      <point x="91" y="685" type="line" smooth="yes"/>
      <point x="91" y="693"/>
      <point x="93" y="701"/>
      <point x="106" y="702" type="curve" smooth="yes"/>
      <point x="121" y="703"/>
      <point x="165" y="706"/>
      <point x="202" y="706" type="curve" smooth="yes"/>
      <point x="235" y="706"/>
      <point x="269" y="704"/>
      <point x="302" y="702" type="curve" smooth="yes"/>
      <point x="313" y="701"/>
      <point x="317" y="693"/>
      <point x="317" y="685" type="curve" smooth="yes"/>
      <point x="317" y="663" type="line" smooth="yes"/>
      <point x="317" y="655"/>
      <point x="313" y="648"/>
      <point x="303" y="646" type="curve" smooth="yes"/>
      <point x="298" y="645"/>
      <point x="249" y="642"/>
    </contour>
  </outline>
</glyph>
<glyph name="afii67842" format="1">
  <advance width="326"/>
  <unicode hex="05C0"/>
  <outline>
    <contour>
      <point x="124" y="-35" type="curve" smooth="yes"/>
      <point x="124" y="-43"/>
      <point x="126" y="-52"/>
      <point x="138" y="-52" type="curve" smooth="yes"/>
      <point x="187" y="-52" type="line" smooth="yes"/>
      <point x="198" y="-52"/>
      <point x="202" y="-44"/>
      <point x="202" y="-36" type="curve" smooth="yes"/>
      <point x="206" y="143"/>
      <point x="208" y="214"/>
      <point x="208" y="278" type="curve" smooth="yes"/>
      <point x="208" y="360"/>
      <point x="205" y="476"/>
      <point x="202" y="606" type="curve" smooth="yes"/>
      <point x="202" y="614"/>
      <point x="198" y="622"/>
      <point x="187" y="622" type="curve" smooth="yes"/>
      <point x="138" y="622" type="line" smooth="yes"/>
      <point x="126" y="622"/>
      <point x="124" y="613"/>
      <point x="124" y="605" type="curve" smooth="yes"/>
      <point x="120" y="478"/>
      <point x="117" y="360"/>
      <point x="117" y="278" type="curve" smooth="yes"/>
      <point x="117" y="214"/>
      <point x="121" y="119"/>
    </contour>
  </outline>
</glyph>
<glyph name="bethebrew" format="1">
  <advance width="567"/>
  <unicode hex="05D1"/>
  <outline>
    <contour>
      <point x="38" y="31" type="curve" smooth="yes"/>
      <point x="51" y="65"/>
      <point x="65" y="106"/>
      <point x="90" y="152" type="curve" smooth="yes"/>
      <point x="96" y="163"/>
      <point x="104" y="167"/>
      <point x="118" y="167" type="curve" smooth="yes"/>
      <point x="318" y="167" type="line"/>
      <point x="334" y="167"/>
      <point x="339" y="170"/>
      <point x="339" y="179" type="curve" smooth="yes"/>
      <point x="339" y="219"/>
      <point x="336" y="308"/>
      <point x="331" y="341" type="curve" smooth="yes"/>
      <point x="327" y="369"/>
      <point x="315" y="384"/>
      <point x="284" y="384" type="curve" smooth="yes"/>
      <point x="90" y="384" type="line"/>
      <point x="75" y="384"/>
      <point x="45" y="385"/>
      <point x="45" y="409" type="curve" smooth="yes"/>
      <point x="45" y="431"/>
      <point x="107" y="545"/>
      <point x="144" y="590" type="curve" smooth="yes"/>
      <point x="149" y="596"/>
      <point x="155" y="603"/>
      <point x="164" y="603" type="curve" smooth="yes"/>
      <point x="178" y="603"/>
      <point x="178" y="587"/>
      <point x="182" y="573" type="curve" smooth="yes"/>
      <point x="186" y="558"/>
      <point x="193" y="552"/>
      <point x="203" y="552" type="curve" smooth="yes"/>
      <point x="352" y="552" type="line" smooth="yes"/>
      <point x="448" y="552"/>
      <point x="457" y="459"/>
      <point x="457" y="384" type="curve" smooth="yes"/>
      <point x="457" y="304"/>
      <point x="458" y="280"/>
      <point x="458" y="236" type="curve" smooth="yes"/>
      <point x="458" y="215"/>
      <point x="468" y="167"/>
      <point x="497" y="167" type="curve" smooth="yes"/>
      <point x="517" y="167" type="line"/>
      <point x="525" y="167"/>
      <point x="534" y="162"/>
      <point x="534" y="147" type="curve" smooth="yes"/>
      <point x="534" y="125"/>
      <point x="488" y="29"/>
      <point x="474" y="10" type="curve" smooth="yes"/>
      <point x="468" y="3"/>
      <point x="463" y="0"/>
      <point x="453" y="0" type="curve" smooth="yes"/>
      <point x="45" y="0" type="line"/>
      <point x="39" y="0"/>
      <point x="33" y="6"/>
      <point x="33" y="14" type="curve" smooth="yes"/>
      <point x="33" y="16"/>
      <point x="35" y="23"/>
    </contour>
  </outline>
</glyph>
<glyph name="kafhebrew" format="1">
  <advance width="567"/>
  <unicode hex="05DB"/>
  <outline>
    <contour>
      <point x="89" y="151" type="curve" smooth="yes"/>
      <point x="99" y="167"/>
      <point x="111" y="168"/>
      <point x="120" y="168" type="curve" smooth="yes"/>
      <point x="311" y="168" type="line"/>
      <point x="341" y="168"/>
      <point x="372" y="196"/>
      <point x="372" y="249" type="curve" smooth="yes"/>
      <point x="372" y="327"/>
      <point x="324" y="385"/>
      <point x="246" y="385" type="curve" smooth="yes"/>
      <point x="91" y="385" type="line"/>
      <point x="60" y="385"/>
      <point x="39" y="390"/>
      <point x="39" y="409" type="curve" smooth="yes"/>
      <point x="39" y="439"/>
      <point x="110" y="564"/>
      <point x="134" y="588" type="curve" smooth="yes"/>
      <point x="144" y="598"/>
      <point x="149" y="603"/>
      <point x="159" y="603" type="curve" smooth="yes"/>
      <point x="166" y="603"/>
      <point x="174" y="594"/>
      <point x="176" y="582" type="curve" smooth="yes"/>
      <point x="181" y="556"/>
      <point x="185" y="553"/>
      <point x="201" y="553" type="curve" smooth="yes"/>
      <point x="334" y="553" type="line" smooth="yes"/>
      <point x="450" y="553"/>
      <point x="507" y="433"/>
      <point x="507" y="335" type="curve" smooth="yes"/>
      <point x="507" y="278"/>
      <point x="502" y="235"/>
      <point x="477" y="172" type="curve" smooth="yes"/>
      <point x="453" y="113"/>
      <point x="410" y="44"/>
      <point x="378" y="15" type="curve" smooth="yes"/>
      <point x="367" y="5"/>
      <point x="359" y="0"/>
      <point x="338" y="0" type="curve" smooth="yes"/>
      <point x="51" y="0" type="line"/>
      <point x="36" y="0"/>
      <point x="30" y="3"/>
      <point x="30" y="16" type="curve" smooth="yes"/>
      <point x="30" y="37"/>
      <point x="74" y="130"/>
    </contour>
  </outline>
</glyph>
<glyph name="finalmemhebrew" format="1">
  <advance width="726"/>
  <unicode hex="05DD"/>
  <outline>
    <contour>
      <point x="111" y="159" type="curve" smooth="yes"/>
      <point x="111" y="200"/>
      <point x="105" y="334"/>
      <point x="100" y="359" type="curve" smooth="yes"/>
      <point x="98" y="370"/>
      <point x="93" y="378"/>
      <point x="78" y="382" type="curve" smooth="yes"/>
      <point x="72" y="383"/>
      <point x="57" y="383"/>
      <point x="49" y="385" type="curve" smooth="yes"/>
      <point x="43" y="386"/>
      <point x="38" y="392"/>
      <point x="38" y="400" type="curve" smooth="yes"/>
      <point x="38" y="405"/>
      <point x="45" y="422"/>
      <point x="48" y="429" type="curve" smooth="yes"/>
      <point x="68" y="475"/>
      <point x="107" y="544"/>
      <point x="134" y="579" type="curve" smooth="yes"/>
      <point x="145" y="594"/>
      <point x="154" y="603"/>
      <point x="166" y="603" type="curve" smooth="yes"/>
      <point x="174" y="603"/>
      <point x="183" y="595"/>
      <point x="186" y="585" type="curve" smooth="yes"/>
      <point x="194" y="557"/>
      <point x="205" y="553"/>
      <point x="225" y="553" type="curve" smooth="yes"/>
      <point x="512" y="553" type="line" smooth="yes"/>
      <point x="610" y="553"/>
      <point x="628" y="468"/>
      <point x="633" y="410" type="curve" smooth="yes"/>
      <point x="639" y="339"/>
      <point x="640" y="304"/>
      <point x="641" y="228" type="curve" smooth="yes"/>
      <point x="641" y="198"/>
      <point x="640" y="174"/>
      <point x="633" y="147" type="curve" smooth="yes"/>
      <point x="619" y="95"/>
      <point x="607" y="51"/>
      <point x="581" y="12" type="curve" smooth="yes"/>
      <point x="575" y="2"/>
      <point x="567" y="0"/>
      <point x="554" y="0" type="curve" smooth="yes"/>
      <point x="196" y="0" type="line"/>
      <point x="170" y="0"/>
      <point x="148" y="12"/>
      <point x="131" y="39" type="curve" smooth="yes"/>
      <point x="114" y="67"/>
      <point x="111" y="127"/>
    </contour>
    <contour>
      <point x="277" y="168" type="curve" smooth="yes"/>
      <point x="505" y="168" type="line"/>
      <point x="520" y="168"/>
      <point x="522" y="188"/>
      <point x="522" y="193" type="curve" smooth="yes"/>
      <point x="522" y="228"/>
      <point x="519" y="302"/>
      <point x="510" y="339" type="curve" smooth="yes"/>
      <point x="503" y="367"/>
      <point x="472" y="385"/>
      <point x="444" y="385" type="curve" smooth="yes"/>
      <point x="247" y="385" type="line"/>
      <point x="229" y="385"/>
      <point x="221" y="376"/>
      <point x="221" y="356" type="curve" smooth="yes"/>
      <point x="221" y="328"/>
      <point x="226" y="240"/>
      <point x="235" y="204" type="curve" smooth="yes"/>
      <point x="241" y="178"/>
      <point x="253" y="168"/>
    </contour>
  </outline>
</glyph>
<glyph name="samekhhebrew" format="1">
  <advance width="726"/>
  <unicode hex="05E1"/>
  <outline>
    <contour>
      <point x="155" y="305" type="curve" smooth="yes"/>
      <point x="143" y="347"/>
      <point x="127" y="385"/>
      <point x="89" y="385" type="curve" smooth="yes"/>
      <point x="59" y="385"/>
      <point x="53" y="393"/>
      <point x="53" y="408" type="curve" smooth="yes"/>
      <point x="53" y="416"/>
      <point x="56" y="425"/>
      <point x="61" y="436" type="curve" smooth="yes"/>
      <point x="72" y="459"/>
      <point x="122" y="548"/>
      <point x="147" y="583" type="curve" smooth="yes"/>
      <point x="158" y="598"/>
      <point x="166" y="602"/>
      <point x="175" y="602" type="curve" smooth="yes"/>
      <point x="189" y="602"/>
      <point x="194" y="594"/>
      <point x="196" y="581" type="curve" smooth="yes"/>
      <point x="200" y="558"/>
      <point x="210" y="552"/>
      <point x="233" y="552" type="curve" smooth="yes"/>
      <point x="592" y="552" type="line"/>
      <point x="635" y="552"/>
      <point x="671" y="514"/>
      <point x="671" y="454" type="curve" smooth="yes"/>
      <point x="671" y="354"/>
      <point x="633" y="247"/>
      <point x="605" y="181" type="curve" smooth="yes"/>
      <point x="575" y="111"/>
      <point x="546" y="81"/>
      <point x="494" y="48" type="curve" smooth="yes"/>
      <point x="447" y="19"/>
      <point x="367" y="-18"/>
      <point x="308" y="-18" type="curve" smooth="yes"/>
      <point x="282" y="-18"/>
      <point x="263" y="-8"/>
      <point x="247" y="20" type="curve" smooth="yes"/>
      <point x="213" y="79"/>
      <point x="183" y="208"/>
    </contour>
    <contour>
      <point x="361" y="154" type="curve" smooth="yes"/>
      <point x="400" y="154"/>
      <point x="462" y="181"/>
      <point x="497" y="201" type="curve" smooth="yes"/>
      <point x="525" y="217"/>
      <point x="547" y="254"/>
      <point x="547" y="305" type="curve" smooth="yes"/>
      <point x="547" y="358"/>
      <point x="524" y="383"/>
      <point x="476" y="383" type="curve"/>
      <point x="287" y="383" type="line"/>
      <point x="275" y="383"/>
      <point x="268" y="379"/>
      <point x="268" y="369" type="curve" smooth="yes"/>
      <point x="268" y="353"/>
      <point x="295" y="242"/>
      <point x="322" y="182" type="curve" smooth="yes"/>
      <point x="331" y="161"/>
      <point x="344" y="154"/>
    </contour>
  </outline>
</glyph>
<glyph name="qofhebrew" format="1">
  <advance width="726"/>
  <unicode hex="05E7"/>
  <outline>
    <contour>
      <point x="139" y="350" type="curve" smooth="yes"/>
      <point x="137" y="368"/>
      <point x="123" y="380"/>
      <point x="107" y="380" type="curve" smooth="yes"/>
      <point x="91" y="380"/>
      <point x="76" y="384"/>
      <point x="70" y="386" type="curve" smooth="yes"/>
      <point x="63" y="388"/>
      <point x="59" y="397"/>
      <point x="59" y="401" type="curve" smooth="yes"/>
      <point x="59" y="426"/>
      <point x="143" y="563"/>
      <point x="177" y="597" type="curve" smooth="yes"/>
      <point x="182" y="602"/>
      <point x="188" y="604"/>
      <point x="194" y="604" type="curve" smooth="yes"/>
      <point x="202" y="604"/>
      <point x="209" y="600"/>
      <point x="212" y="590" type="curve" smooth="yes"/>
      <point x="219" y="561"/>
      <point x="226" y="553"/>
      <point x="241" y="553" type="curve" smooth="yes"/>
      <point x="590" y="553" type="line" smooth="yes"/>
      <point x="661" y="553"/>
      <point x="673" y="488"/>
      <point x="673" y="428" type="curve" smooth="yes"/>
      <point x="673" y="387"/>
      <point x="657" y="333"/>
      <point x="647" y="307" type="curve" smooth="yes"/>
      <point x="634" y="272"/>
      <point x="600" y="194"/>
      <point x="576" y="152" type="curve" smooth="yes"/>
      <point x="553" y="114"/>
      <point x="528" y="81"/>
      <point x="499" y="60" type="curve" smooth="yes"/>
      <point x="460" y="32"/>
      <point x="354" y="-23"/>
      <point x="319" y="-23" type="curve" smooth="yes"/>
      <point x="311" y="-23"/>
      <point x="304" y="-19"/>
      <point x="304" y="-11" type="curve" smooth="yes"/>
      <point x="304" y="5"/>
      <point x="326" y="88"/>
      <point x="342" y="127" type="curve" smooth="yes"/>
      <point x="349" y="144"/>
      <point x="356" y="149"/>
      <point x="370" y="154" type="curve" smooth="yes"/>
      <point x="395" y="163"/>
      <point x="454" y="184"/>
      <point x="495" y="215" type="curve" smooth="yes"/>
      <point x="514" y="229"/>
      <point x="518" y="247"/>
      <point x="523" y="268" type="curve" smooth="yes"/>
      <point x="529" y="294"/>
      <point x="529" y="314"/>
      <point x="529" y="338" type="curve" smooth="yes"/>
      <point x="529" y="371"/>
      <point x="517" y="384"/>
      <point x="484" y="384" type="curve" smooth="yes"/>
      <point x="299" y="384" type="line"/>
      <point x="278" y="384"/>
      <point x="271" y="369"/>
      <point x="271" y="351" type="curve" smooth="yes"/>
      <point x="271" y="-13" type="line" smooth="yes"/>
      <point x="271" y="-50"/>
      <point x="270" y="-89"/>
      <point x="266" y="-102" type="curve" smooth="yes"/>
      <point x="261" y="-117"/>
      <point x="257" y="-125"/>
      <point x="251" y="-136" type="curve" smooth="yes"/>
      <point x="235" y="-164"/>
      <point x="221" y="-188"/>
      <point x="199" y="-215" type="curve" smooth="yes"/>
      <point x="190" y="-226"/>
      <point x="186" y="-229"/>
      <point x="178" y="-229" type="curve" smooth="yes"/>
      <point x="170" y="-229"/>
      <point x="165" y="-222"/>
      <point x="164" y="-202" type="curve" smooth="yes"/>
      <point x="157" y="-43"/>
      <point x="149" y="198"/>
    </contour>
  </outline>
</glyph>
<glyph name="endash" format="1">
  <advance width="576"/>
  <unicode hex="2013"/>
  <outline>
    <contour>
      <point x="117" y="318" type="curve" smooth="yes"/>
      <point x="129" y="334"/>
      <point x="140" y="340"/>
      <point x="161" y="340" type="curve" smooth="yes"/>
      <point x="479" y="340" type="line" smooth="yes"/>
      <point x="495" y="340"/>
      <point x="506" y="336"/>
      <point x="506" y="320" type="curve" smooth="yes"/>
      <point x="506" y="315"/>
      <point x="505" y="308"/>
      <point x="502" y="301" type="curve" smooth="yes"/>
      <point x="495" y="282"/>
      <point x="481" y="257"/>
      <point x="468" y="239" type="curve" smooth="yes"/>
      <point x="456" y="223"/>
      <point x="449" y="217"/>
      <point x="435" y="217" type="curve" smooth="yes"/>
      <point x="364" y="217"/>
      <point x="168" y="216"/>
      <point x="95" y="216" type="curve" smooth="yes"/>
      <point x="84" y="216"/>
      <point x="70" y="219"/>
      <point x="70" y="234" type="curve" smooth="yes"/>
      <point x="70" y="245"/>
      <point x="75" y="252"/>
      <point x="78" y="258" type="curve" smooth="yes"/>
      <point x="81" y="264"/>
      <point x="97" y="292"/>
    </contour>
  </outline>
</glyph>
<glyph name="emdash" format="1">
  <advance width="676"/>
  <unicode hex="2014"/>
  <outline>
    <contour>
      <point x="117" y="318" type="curve" smooth="yes"/>
      <point x="129" y="334"/>
      <point x="140" y="340"/>
      <point x="161" y="340" type="curve" smooth="yes"/>
      <point x="579" y="340" type="line" smooth="yes"/>
      <point x="595" y="340"/>
      <point x="606" y="337"/>
      <point x="606" y="321" type="curve" smooth="yes"/>
      <point x="606" y="315"/>
      <point x="604" y="307"/>
      <point x="600" y="298" type="curve" smooth="yes"/>
      <point x="593" y="280"/>
      <point x="580" y="256"/>
      <point x="568" y="239" type="curve" smooth="yes"/>
      <point x="556" y="223"/>
      <point x="549" y="217"/>
      <point x="535" y="217" type="curve" smooth="yes"/>
      <point x="464" y="217"/>
      <point x="168" y="216"/>
      <point x="95" y="216" type="curve" smooth="yes"/>
      <point x="84" y="216"/>
      <point x="70" y="219"/>
      <point x="70" y="234" type="curve" smooth="yes"/>
      <point x="70" y="245"/>
      <point x="78" y="259"/>
      <point x="81" y="265" type="curve" smooth="yes"/>
      <point x="84" y="271"/>
      <point x="97" y="292"/>
    </contour>
  </outline>
</glyph>
<glyph name="quoteleft" format="1">
  <advance width="372"/>
  <unicode hex="2018"/>
  <outline>
    <contour>
      <point x="293" y="592" type="curve" smooth="yes"/>
      <point x="279" y="553"/>
      <point x="253" y="489"/>
      <point x="245" y="447" type="curve" smooth="yes"/>
      <point x="239" y="413"/>
      <point x="237" y="383"/>
      <point x="237" y="365" type="curve" smooth="yes"/>
      <point x="237" y="355"/>
      <point x="233" y="349"/>
      <point x="228" y="342" type="curve" smooth="yes"/>
      <point x="214" y="323"/>
      <point x="168" y="280"/>
      <point x="140" y="263" type="curve" smooth="yes"/>
      <point x="133" y="259"/>
      <point x="125" y="255"/>
      <point x="116" y="255" type="curve" smooth="yes"/>
      <point x="106" y="256"/>
      <point x="91" y="288"/>
      <point x="91" y="331" type="curve" smooth="yes"/>
      <point x="91" y="385"/>
      <point x="106" y="432"/>
      <point x="149" y="506" type="curve" smooth="yes"/>
      <point x="175" y="550"/>
      <point x="218" y="600"/>
      <point x="256" y="627" type="curve" smooth="yes"/>
      <point x="268" y="636"/>
      <point x="274" y="639"/>
      <point x="290" y="639" type="curve" smooth="yes"/>
      <point x="297" y="639"/>
      <point x="303" y="632"/>
      <point x="303" y="625" type="curve" smooth="yes"/>
      <point x="303" y="617"/>
      <point x="297" y="603"/>
    </contour>
  </outline>
</glyph>
<glyph name="quoteright" format="1">
  <advance width="372"/>
  <unicode hex="2019"/>
  <outline>
    <contour>
      <point x="79" y="302" type="curve" smooth="yes"/>
      <point x="93" y="341"/>
      <point x="119" y="405"/>
      <point x="127" y="447" type="curve" smooth="yes"/>
      <point x="133" y="481"/>
      <point x="135" y="511"/>
      <point x="135" y="529" type="curve" smooth="yes"/>
      <point x="135" y="539"/>
      <point x="139" y="545"/>
      <point x="144" y="552" type="curve" smooth="yes"/>
      <point x="158" y="571"/>
      <point x="204" y="614"/>
      <point x="232" y="631" type="curve" smooth="yes"/>
      <point x="239" y="635"/>
      <point x="247" y="639"/>
      <point x="256" y="639" type="curve" smooth="yes"/>
      <point x="266" y="638"/>
      <point x="281" y="606"/>
      <point x="281" y="563" type="curve" smooth="yes"/>
      <point x="281" y="509"/>
      <point x="266" y="462"/>
      <point x="223" y="388" type="curve" smooth="yes"/>
      <point x="197" y="344"/>
      <point x="154" y="294"/>
      <point x="116" y="267" type="curve" smooth="yes"/>
      <point x="104" y="258"/>
      <point x="98" y="255"/>
      <point x="82" y="255" type="curve" smooth="yes"/>
      <point x="75" y="255"/>
      <point x="69" y="262"/>
      <point x="69" y="269" type="curve" smooth="yes"/>
      <point x="69" y="277"/>
      <point x="75" y="291"/>
    </contour>
  </outline>
</glyph>
<glyph name="quotedblbase" format="1">
  <advance width="562"/>
  <unicode hex="201E"/>
  <outline>
    <contour>
      <point x="70" y="-113" type="curve" smooth="yes"/>
      <point x="84" y="-74"/>
      <point x="110" y="-10"/>
      <point x="118" y="32" type="curve" smooth="yes"/>
      <point x="124" y="66"/>
      <point x="126" y="96"/>
      <point x="126" y="114" type="curve" smooth="yes"/>
      <point x="126" y="124"/>
      <point x="130" y="130"/>
      <point x="135" y="137" type="curve" smooth="yes"/>
      <point x="149" y="156"/>
      <point x="195" y="199"/>
      <point x="223" y="216" type="curve" smooth="yes"/>
      <point x="230" y="220"/>
      <point x="238" y="224"/>
      <point x="247" y="224" type="curve" smooth="yes"/>
      <point x="257" y="223"/>
      <point x="272" y="191"/>
      <point x="272" y="148" type="curve" smooth="yes"/>
      <point x="272" y="94"/>
      <point x="257" y="47"/>
      <point x="214" y="-27" type="curve" smooth="yes"/>
      <point x="188" y="-71"/>
      <point x="145" y="-121"/>
      <point x="107" y="-148" type="curve" smooth="yes"/>
      <point x="95" y="-157"/>
      <point x="89" y="-160"/>
      <point x="73" y="-160" type="curve" smooth="yes"/>
      <point x="66" y="-160"/>
      <point x="60" y="-153"/>
      <point x="60" y="-146" type="curve" smooth="yes"/>
      <point x="60" y="-138"/>
      <point x="66" y="-124"/>
    </contour>
    <contour>
      <point x="291" y="-113" type="curve" smooth="yes"/>
      <point x="305" y="-74"/>
      <point x="331" y="-10"/>
      <point x="339" y="32" type="curve" smooth="yes"/>
      <point x="345" y="66"/>
      <point x="347" y="96"/>
      <point x="347" y="114" type="curve" smooth="yes"/>
      <point x="347" y="124"/>
      <point x="351" y="130"/>
      <point x="356" y="137" type="curve" smooth="yes"/>
      <point x="370" y="156"/>
      <point x="416" y="199"/>
      <point x="444" y="216" type="curve" smooth="yes"/>
      <point x="451" y="220"/>
      <point x="459" y="224"/>
      <point x="468" y="224" type="curve" smooth="yes"/>
      <point x="478" y="223"/>
      <point x="493" y="191"/>
      <point x="493" y="148" type="curve" smooth="yes"/>
      <point x="493" y="94"/>
      <point x="478" y="47"/>
      <point x="435" y="-27" type="curve" smooth="yes"/>
      <point x="409" y="-71"/>
      <point x="366" y="-121"/>
      <point x="328" y="-148" type="curve" smooth="yes"/>
      <point x="316" y="-157"/>
      <point x="310" y="-160"/>
      <point x="294" y="-160" type="curve" smooth="yes"/>
      <point x="287" y="-160"/>
      <point x="281" y="-153"/>
      <point x="281" y="-146" type="curve" smooth="yes"/>
      <point x="281" y="-138"/>
      <point x="287" y="-124"/>
    </contour>
  </outline>
</glyph>
<glyph name="sheqelhebrew" format="1">
  <advance width="881"/>
  <unicode hex="20AA"/>
  <outline>
    <contour>
      <point x="431" y="178" type="curve" smooth="yes"/>
      <point x="444" y="157"/>
      <point x="451" y="150"/>
      <point x="471" y="150" type="curve" smooth="yes"/>
      <point x="527" y="150"/>
      <point x="603" y="192"/>
      <point x="631" y="215" type="curve" smooth="yes"/>
      <point x="661" y="239"/>
      <point x="679" y="266"/>
      <point x="679" y="307" type="curve" smooth="yes"/>
      <point x="679" y="354"/>
      <point x="646" y="447"/>
      <point x="641" y="460" type="curve" smooth="yes"/>
      <point x="638" y="468"/>
      <point x="636" y="475"/>
      <point x="636" y="480" type="curve" smooth="yes"/>
      <point x="636" y="483"/>
      <point x="637" y="487"/>
      <point x="639" y="490" type="curve" smooth="yes"/>
      <point x="656" y="518"/>
      <point x="691" y="569"/>
      <point x="731" y="604" type="curve" smooth="yes"/>
      <point x="735" y="607"/>
      <point x="743" y="611"/>
      <point x="748" y="611" type="curve" smooth="yes"/>
      <point x="761" y="611"/>
      <point x="766" y="601"/>
      <point x="770" y="592" type="curve" smooth="yes"/>
      <point x="783" y="563"/>
      <point x="800" y="483"/>
      <point x="800" y="436" type="curve" smooth="yes"/>
      <point x="800" y="388"/>
      <point x="787" y="347"/>
      <point x="780" y="318" type="curve" smooth="yes"/>
      <point x="756" y="227"/>
      <point x="726" y="168"/>
      <point x="715" y="147" type="curve" smooth="yes"/>
      <point x="699" y="116"/>
      <point x="663" y="71"/>
      <point x="630" y="51" type="curve" smooth="yes"/>
      <point x="592" y="28"/>
      <point x="482" y="-19"/>
      <point x="428" y="-19" type="curve" smooth="yes"/>
      <point x="394" y="-19"/>
      <point x="354" y="7"/>
      <point x="337" y="61" type="curve" smooth="yes"/>
      <point x="323" y="105"/>
      <point x="296" y="167"/>
      <point x="272" y="209" type="curve" smooth="yes"/>
      <point x="267" y="218"/>
      <point x="261" y="231"/>
      <point x="261" y="240" type="curve" smooth="yes"/>
      <point x="261" y="246"/>
      <point x="263" y="255"/>
      <point x="267" y="260" type="curve" smooth="yes"/>
      <point x="292" y="292"/>
      <point x="316" y="318"/>
      <point x="341" y="343" type="curve" smooth="yes"/>
      <point x="346" y="348"/>
      <point x="349" y="353"/>
      <point x="357" y="353" type="curve" smooth="yes"/>
      <point x="367" y="353"/>
      <point x="375" y="348"/>
      <point x="379" y="337" type="curve" smooth="yes"/>
      <point x="390" y="309"/>
      <point x="397" y="285"/>
      <point x="403" y="264" type="curve" smooth="yes"/>
      <point x="405" y="258"/>
      <point x="407" y="255"/>
      <point x="410" y="255" type="curve" smooth="yes"/>
      <point x="412" y="255"/>
      <point x="415" y="257"/>
      <point x="418" y="259" type="curve" smooth="yes"/>
      <point x="429" y="269"/>
      <point x="444" y="279"/>
      <point x="452" y="292" type="curve" smooth="yes"/>
      <point x="460" y="307"/>
      <point x="463" y="323"/>
      <point x="463" y="339" type="curve" smooth="yes"/>
      <point x="463" y="372"/>
      <point x="445" y="395"/>
      <point x="393" y="395" type="curve" smooth="yes"/>
      <point x="235" y="395" type="line" smooth="yes"/>
      <point x="223" y="395"/>
      <point x="216" y="388"/>
      <point x="216" y="377" type="curve" smooth="yes"/>
      <point x="216" y="305"/>
      <point x="223" y="225"/>
      <point x="223" y="156" type="curve" smooth="yes"/>
      <point x="223" y="135"/>
      <point x="223" y="102"/>
      <point x="216" y="90" type="curve" smooth="yes"/>
      <point x="199" y="56"/>
      <point x="166" y="-4"/>
      <point x="138" y="-22" type="curve" smooth="yes"/>
      <point x="134" y="-24"/>
      <point x="131" y="-25"/>
      <point x="128" y="-25" type="curve" smooth="yes"/>
      <point x="121" y="-25"/>
      <point x="117" y="-19"/>
      <point x="117" y="-12" type="curve" smooth="yes"/>
      <point x="106" y="138"/>
      <point x="103" y="294"/>
      <point x="71" y="433" type="curve" smooth="yes"/>
      <point x="70" y="438"/>
      <point x="69" y="442"/>
      <point x="69" y="446" type="curve" smooth="yes"/>
      <point x="69" y="450"/>
      <point x="71" y="454"/>
      <point x="72" y="457" type="curve" smooth="yes"/>
      <point x="88" y="493"/>
      <point x="133" y="562"/>
      <point x="171" y="604" type="curve" smooth="yes"/>
      <point x="175" y="609"/>
      <point x="179" y="613"/>
      <point x="186" y="613" type="curve" smooth="yes"/>
      <point x="198" y="613"/>
      <point x="202" y="604"/>
      <point x="207" y="584" type="curve" smooth="yes"/>
      <point x="211" y="566"/>
      <point x="224" y="563"/>
      <point x="242" y="563" type="curve" smooth="yes"/>
      <point x="420" y="563" type="line" smooth="yes"/>
      <point x="548" y="563"/>
      <point x="590" y="505"/>
      <point x="590" y="413" type="curve" smooth="yes"/>
      <point x="590" y="381"/>
      <point x="572" y="329"/>
      <point x="549" y="300" type="curve" smooth="yes"/>
      <point x="518" y="261"/>
      <point x="483" y="223"/>
      <point x="436" y="193" type="curve" smooth="yes"/>
      <point x="431" y="189"/>
      <point x="428" y="187"/>
      <point x="428" y="184" type="curve" smooth="yes"/>
      <point x="428" y="182"/>
      <point x="429" y="180"/>
    </contour>
  </outline>
</glyph>
<glyph name="minus" format="1">
  <advance width="568"/>
  <unicode hex="2212"/>
  <outline>
    <contour>
      <point x="82" y="364" type="curve"/>
      <point x="69" y="364"/>
      <point x="66" y="358"/>
      <point x="66" y="348" type="curve" smooth="yes"/>
      <point x="66" y="289" type="line" smooth="yes"/>
      <point x="66" y="280"/>
      <point x="69" y="274"/>
      <point x="82" y="274" type="curve" smooth="yes"/>
      <point x="82" y="274"/>
      <point x="247" y="277"/>
      <point x="302" y="277" type="curve" smooth="yes"/>
      <point x="348" y="277"/>
      <point x="486" y="274"/>
      <point x="486" y="274" type="curve"/>
      <point x="499" y="274"/>
      <point x="502" y="280"/>
      <point x="502" y="289" type="curve" smooth="yes"/>
      <point x="502" y="348" type="line" smooth="yes"/>
      <point x="502" y="362"/>
      <point x="494" y="364"/>
      <point x="488" y="364" type="curve" smooth="yes"/>
      <point x="488" y="364"/>
      <point x="357" y="361"/>
      <point x="300" y="361" type="curve" smooth="yes"/>
      <point x="235" y="361"/>
      <point x="82" y="364"/>
    </contour>
  </outline>
</glyph>
<glyph name="lessequal" format="1">
  <advance width="568"/>
  <unicode hex="2264"/>
  <outline>
    <contour>
      <point x="67" y="379" type="line"/>
      <point x="67" y="389"/>
      <point x="70" y="391"/>
      <point x="76" y="394" type="curve"/>
      <point x="76" y="394"/>
      <point x="214" y="447"/>
      <point x="275" y="477" type="curve" smooth="yes"/>
      <point x="326" y="502"/>
      <point x="389" y="531"/>
      <point x="444" y="557" type="curve" smooth="yes"/>
      <point x="448" y="559"/>
      <point x="452" y="560"/>
      <point x="456" y="560" type="curve" smooth="yes"/>
      <point x="461" y="560"/>
      <point x="465" y="558"/>
      <point x="470" y="548" type="curve" smooth="yes"/>
      <point x="495" y="495" type="line" smooth="yes"/>
      <point x="496" y="492"/>
      <point x="498" y="489"/>
      <point x="498" y="486" type="curve" smooth="yes"/>
      <point x="498" y="481"/>
      <point x="492" y="477"/>
      <point x="484" y="474" type="curve"/>
      <point x="484" y="474"/>
      <point x="364" y="423"/>
      <point x="319" y="403" type="curve" smooth="yes"/>
      <point x="185" y="345" type="line"/>
      <point x="319" y="284" type="line" smooth="yes"/>
      <point x="361" y="264"/>
      <point x="487" y="211"/>
      <point x="487" y="211" type="curve"/>
      <point x="495" y="208"/>
      <point x="497" y="204"/>
      <point x="497" y="199" type="curve" smooth="yes"/>
      <point x="497" y="196"/>
      <point x="496" y="194"/>
      <point x="495" y="191" type="curve" smooth="yes"/>
      <point x="467" y="133" type="line" smooth="yes"/>
      <point x="464" y="127"/>
      <point x="461" y="125"/>
      <point x="457" y="125" type="curve" smooth="yes"/>
      <point x="454" y="125"/>
      <point x="448" y="127"/>
      <point x="444" y="129" type="curve"/>
      <point x="444" y="129"/>
      <point x="326" y="185"/>
      <point x="275" y="209" type="curve" smooth="yes"/>
      <point x="216" y="237"/>
      <point x="76" y="296"/>
      <point x="76" y="296" type="curve"/>
      <point x="70" y="299"/>
      <point x="67" y="303"/>
      <point x="67" y="316" type="curve" smooth="yes"/>
    </contour>
    <contour>
      <point x="484" y="92" type="curve"/>
      <point x="497" y="92"/>
      <point x="500" y="86"/>
      <point x="500" y="76" type="curve" smooth="yes"/>
      <point x="500" y="17" type="line" smooth="yes"/>
      <point x="500" y="8"/>
      <point x="497" y="2"/>
      <point x="484" y="2" type="curve" smooth="yes"/>
      <point x="484" y="2"/>
      <point x="344" y="5"/>
      <point x="289" y="5" type="curve" smooth="yes"/>
      <point x="243" y="5"/>
      <point x="97" y="2"/>
      <point x="97" y="2" type="curve"/>
      <point x="84" y="2"/>
      <point x="81" y="8"/>
      <point x="81" y="17" type="curve" smooth="yes"/>
      <point x="81" y="76" type="line" smooth="yes"/>
      <point x="81" y="90"/>
      <point x="89" y="92"/>
      <point x="95" y="92" type="curve" smooth="yes"/>
      <point x="95" y="92"/>
      <point x="234" y="89"/>
      <point x="291" y="89" type="curve" smooth="yes"/>
      <point x="356" y="89"/>
      <point x="484" y="92"/>
    </contour>
  </outline>
</glyph>
<glyph name="four.001" format="1">
  <advance width="499"/>
  <outline>
    <contour>
      <point x="247" y="141" type="curve" smooth="yes"/>
      <point x="247" y="157"/>
      <point x="241" y="162"/>
      <point x="230" y="162" type="curve" smooth="yes"/>
      <point x="78" y="162" type="line"/>
      <point x="48" y="162"/>
      <point x="27" y="186"/>
      <point x="27" y="219" type="curve" smooth="yes"/>
      <point x="27" y="266"/>
      <point x="65" y="359"/>
      <point x="91" y="409" type="curve" smooth="yes"/>
      <point x="107" y="440"/>
      <point x="135" y="495"/>
      <point x="173" y="530" type="curve" smooth="yes"/>
      <point x="200" y="556"/>
      <point x="240" y="579"/>
      <point x="267" y="590" type="curve" smooth="yes"/>
      <point x="284" y="597"/>
      <point x="320" y="608"/>
      <point x="330" y="608" type="curve" smooth="yes"/>
      <point x="338" y="608"/>
      <point x="350" y="601"/>
      <point x="350" y="585" type="curve" smooth="yes"/>
      <point x="356" y="525"/>
      <point x="360" y="332"/>
      <point x="360" y="322" type="curve" smooth="yes"/>
      <point x="360" y="317"/>
      <point x="363" y="313"/>
      <point x="373" y="313" type="curve" smooth="yes"/>
      <point x="448" y="313" type="line"/>
      <point x="457" y="313"/>
      <point x="463" y="307"/>
      <point x="463" y="296" type="curve" smooth="yes"/>
      <point x="463" y="275"/>
      <point x="428" y="190"/>
      <point x="413" y="170" type="curve" smooth="yes"/>
      <point x="410" y="166"/>
      <point x="405" y="161"/>
      <point x="401" y="161" type="curve" smooth="yes"/>
      <point x="366" y="161" type="line"/>
      <point x="360" y="161"/>
      <point x="356" y="152"/>
      <point x="356" y="139" type="curve" smooth="yes"/>
      <point x="356" y="97" type="line" smooth="yes"/>
      <point x="356" y="90"/>
      <point x="353" y="80"/>
      <point x="349" y="72" type="curve" smooth="yes"/>
      <point x="333" y="40"/>
      <point x="299" y="0"/>
      <point x="281" y="-18" type="curve" smooth="yes"/>
      <point x="277" y="-22"/>
      <point x="273" y="-25"/>
      <point x="265" y="-25" type="curve" smooth="yes"/>
      <point x="257" y="-25"/>
      <point x="250" y="-20"/>
      <point x="250" y="3" type="curve" smooth="yes"/>
      <point x="250" y="25"/>
      <point x="247" y="120"/>
    </contour>
    <contour>
      <point x="184" y="313" type="curve" smooth="yes"/>
      <point x="240" y="313" type="line"/>
      <point x="252" y="313"/>
      <point x="256" y="316"/>
      <point x="256" y="329" type="curve" smooth="yes"/>
      <point x="256" y="354"/>
      <point x="251" y="428"/>
      <point x="248" y="453" type="curve" smooth="yes"/>
      <point x="247" y="459"/>
      <point x="247" y="468"/>
      <point x="240" y="468" type="curve" smooth="yes"/>
      <point x="227" y="468"/>
      <point x="187" y="435"/>
      <point x="173" y="400" type="curve" smooth="yes"/>
      <point x="166" y="383"/>
      <point x="159" y="357"/>
      <point x="159" y="333" type="curve" smooth="yes"/>
      <point x="159" y="318"/>
      <point x="168" y="313"/>
    </contour>
  </outline>
</glyph>
<glyph name="nine.001" format="1">
  <advance width="500"/>
  <outline>
    <contour>
      <point x="120" y="22" type="curve" smooth="yes"/>
      <point x="146" y="70"/>
      <point x="203" y="147"/>
      <point x="229" y="191" type="curve" smooth="yes"/>
      <point x="231" y="194"/>
      <point x="232" y="196"/>
      <point x="232" y="198" type="curve" smooth="yes"/>
      <point x="232" y="201"/>
      <point x="229" y="202"/>
      <point x="226" y="202" type="curve" smooth="yes"/>
      <point x="223" y="202"/>
      <point x="208" y="197"/>
      <point x="190" y="197" type="curve" smooth="yes"/>
      <point x="158" y="197"/>
      <point x="116" y="208"/>
      <point x="77" y="246" type="curve" smooth="yes"/>
      <point x="45" y="278"/>
      <point x="34" y="319"/>
      <point x="34" y="364" type="curve" smooth="yes"/>
      <point x="34" y="423"/>
      <point x="81" y="499"/>
      <point x="98" y="519" type="curve" smooth="yes"/>
      <point x="123" y="548"/>
      <point x="174" y="603"/>
      <point x="257" y="603" type="curve" smooth="yes"/>
      <point x="298" y="603"/>
      <point x="358" y="584"/>
      <point x="401" y="543" type="curve" smooth="yes"/>
      <point x="443" y="502"/>
      <point x="455" y="445"/>
      <point x="455" y="406" type="curve" smooth="yes"/>
      <point x="455" y="368"/>
      <point x="441" y="337"/>
      <point x="428" y="309" type="curve" smooth="yes"/>
      <point x="396" y="242"/>
      <point x="331" y="135"/>
      <point x="290" y="72" type="curve" smooth="yes"/>
      <point x="278" y="54"/>
      <point x="263" y="32"/>
      <point x="243" y="20" type="curve" smooth="yes"/>
      <point x="221" y="6"/>
      <point x="138" y="-26"/>
      <point x="120" y="-26" type="curve" smooth="yes"/>
      <point x="109" y="-26"/>
      <point x="103" y="-20"/>
      <point x="103" y="-14" type="curve" smooth="yes"/>
      <point x="103" y="-6"/>
      <point x="115" y="12"/>
    </contour>
    <contour>
      <point x="287" y="333" type="curve" smooth="yes"/>
      <point x="304" y="344"/>
      <point x="311" y="363"/>
      <point x="311" y="388" type="curve" smooth="yes"/>
      <point x="311" y="405"/>
      <point x="303" y="432"/>
      <point x="284" y="447" type="curve" smooth="yes"/>
      <point x="269" y="460"/>
      <point x="251" y="465"/>
      <point x="228" y="465" type="curve" smooth="yes"/>
      <point x="208" y="465"/>
      <point x="193" y="460"/>
      <point x="182" y="449" type="curve" smooth="yes"/>
      <point x="171" y="436"/>
      <point x="164" y="419"/>
      <point x="164" y="400" type="curve" smooth="yes"/>
      <point x="164" y="349"/>
      <point x="200" y="321"/>
      <point x="239" y="321" type="curve" smooth="yes"/>
      <point x="255" y="321"/>
      <point x="275" y="325"/>
    </contour>
  </outline>
</glyph>
